<?xml version="1.0" encoding="utf-8"?>
<!-- Svg Vector Icons : http://www.onlinewebfonts.com/icon -->
<!DOCTYPE svg PUBLIC "-//W3C//DTD SVG 1.1//EN" "http://www.w3.org/Graphics/SVG/1.1/DTD/svg11.dtd">
<svg version="1.1" xmlns="http://www.w3.org/2000/svg" xmlns:xlink="http://www.w3.org/1999/xlink" x="0px" y="0px" viewBox="0 0 256 256" enable-background="new 0 0 256 256" xml:space="preserve">
<metadata> Svg Vector Icons : http://www.onlinewebfonts.com/icon </metadata>
<g><g><g><path fill="#000000" d="M117.4,10.1c-12.1,1.9-23.3,6.6-33.3,13.9C80.4,26.8,69.1,38,69.1,38.9c0,0.3-2.1,0.4-4.9,0.2c-5.8-0.4-12.5,0.5-18.7,2.4c-16.3,5.1-28.8,18-33.9,34.9c-1.4,4.6-1.6,5.7-1.6,14.2c0,10.8,0.9,14.9,4.9,23.1c11.1,22.4,37,33.8,60.7,26.8l4-1.2l2.1,1.7c9,7.2,20.4,12.5,31.9,15c6.4,1.4,22.2,1.4,28.6,0c10.4-2.2,20.2-6.6,29-12.9l5.2-3.7l4,1.2c23.6,6.9,49.6-4.6,60.6-26.9c4-8.1,4.9-12.3,4.9-22.8c0.1-9.9-0.8-13.9-4.3-21.7c-8.8-19-28.8-31.2-49.3-30.1l-5.3,0.3l-1.3-1.8c-1.9-2.9-10.5-11.1-14.7-14.2c-7.8-5.7-16.2-9.6-26.1-12c-4.6-1.2-7.3-1.4-15.1-1.6C124.8,9.7,119.1,9.8,117.4,10.1z M134.7,24.6c9.4,1.2,17.6,4.1,25.2,9.1c6.2,4.1,10.9,8.6,16.2,15.7l4.4,5.9l2.8-0.3c8.3-1,15.9-1.1,19.8-0.1c13.2,3.2,23.9,13.7,27.5,26.9c1.2,4.8,1.2,13.5-0.1,18.3c-4.2,15.7-17.9,26.7-34.2,27.6c-6.1,0.3-9.8-0.4-17.8-3.4l-5.2-1.9l-2.4,2.1c-15.7,13.4-26.6,18-42.7,18.1c-15.2,0.1-27.7-4.7-40-15.3c-2.1-1.8-4.3-3.7-4.8-4.1c-0.7-0.6-1.8-0.4-6.7,1.4c-7.2,2.7-12.2,3.6-17.9,3.2c-12.8-0.9-24.4-8.4-30.3-19.8c-3.1-5.9-4.1-10.3-4.2-17c0-10.6,3.2-18.3,10.8-25.9c5-5.1,7.7-6.8,14.1-9.2c3.5-1.3,4.7-1.5,11.2-1.5c4-0.1,9,0.2,11.1,0.4l3.9,0.5l4.4-5.9c2.4-3.3,6-7.4,7.9-9.2C100.4,28.3,117.8,22.5,134.7,24.6z"/><path fill="#000000" d="M50.6,157.9c-4.3,1-7.8,3.8-10,7.9c-1.7,3.2-1.7,9.7,0,12.8c1.6,3,5.6,6.6,8.3,7.6c6.6,2.2,14.3-0.6,17.8-6.5c1.7-2.9,2.3-8.2,1.4-11.7C66.2,161.2,57.7,156.2,50.6,157.9z"/><path fill="#000000" d="M198.4,158.1c-6.2,1.7-10.3,6.6-10.8,12.7c-0.6,6.7,2.1,11.7,7.8,14.6c5.7,2.9,12.2,2,16.7-2.3c3.4-3.3,4.6-5.8,4.6-10.7s-1.1-7.3-4.6-10.7C208.4,158.1,203.2,156.8,198.4,158.1z"/><path fill="#000000" d="M124.1,172.8c-10.4,3.4-14.1,15.1-7.4,23.8c3.1,4.1,10,6.2,15.6,4.7c7.6-2.1,12.3-11.4,9.7-19.2c-0.9-2.7-4.6-6.7-7.5-8.2C132,172.7,126.4,172.1,124.1,172.8z"/><path fill="#000000" d="M79.7,217.3c-10.4,3.4-14.1,15.1-7.4,23.8c3.1,4.1,10,6.2,15.6,4.7c7.6-2.1,12.3-11.4,9.7-19.2c-0.9-2.7-4.6-6.7-7.5-8.2C87.6,217.1,81.9,216.5,79.7,217.3z"/><path fill="#000000" d="M168.6,217.3c-10.4,3.4-14.1,15.1-7.4,23.8c3.1,4.1,10,6.2,15.6,4.7c7.6-2.1,12.3-11.4,9.7-19.2c-0.9-2.7-4.6-6.7-7.5-8.2C176.4,217.1,170.8,216.5,168.6,217.3z"/></g></g></g>
</svg>